<mxfile host="app.diagrams.net" modified="2023-02-07T08:41:48.501Z" agent="5.0 (Macintosh; Intel Mac OS X 10_15_7) AppleWebKit/605.1.15 (KHTML, like Gecko) Version/16.3 Safari/605.1.15" etag="HU4m14ORTkoeHg7jBawx" version="20.8.17" type="github">
  <diagram name="Page-1" id="tLp-8d7TwJyKVzJQvUpv">
    <mxGraphModel dx="2074" dy="430" grid="1" gridSize="10" guides="1" tooltips="1" connect="1" arrows="1" fold="1" page="1" pageScale="1" pageWidth="850" pageHeight="1100" math="0" shadow="0">
      <root>
        <mxCell id="0" />
        <mxCell id="1" parent="0" />
        <mxCell id="q6W2Uku25WSJ_EjxytG9-1" value="" style="shape=cylinder3;whiteSpace=wrap;html=1;boundedLbl=1;backgroundOutline=1;size=15;" parent="1" vertex="1">
          <mxGeometry x="390" y="190" width="320" height="130" as="geometry" />
        </mxCell>
        <mxCell id="rwxguHhk1OJxd6nBLaDE-1" value="" style="shape=xor;whiteSpace=wrap;html=1;" vertex="1" parent="1">
          <mxGeometry x="70" y="50" width="60" height="80" as="geometry" />
        </mxCell>
        <mxCell id="rwxguHhk1OJxd6nBLaDE-2" value="" style="shape=flexArrow;endArrow=classic;html=1;rounded=0;" edge="1" parent="1" target="rwxguHhk1OJxd6nBLaDE-3">
          <mxGeometry width="50" height="50" relative="1" as="geometry">
            <mxPoint x="150" y="330" as="sourcePoint" />
            <mxPoint x="200" y="280" as="targetPoint" />
          </mxGeometry>
        </mxCell>
        <mxCell id="rwxguHhk1OJxd6nBLaDE-3" value="&lt;h1&gt;Heading&lt;/h1&gt;&lt;p&gt;Lorem ipsum dolor sit amet, consectetur adipisicing elit, sed do eiusmod tempor incididunt ut labore et dolore magna aliqua.&lt;/p&gt;" style="text;html=1;strokeColor=none;fillColor=none;spacing=5;spacingTop=-20;whiteSpace=wrap;overflow=hidden;rounded=0;" vertex="1" parent="1">
          <mxGeometry x="200" y="40" width="190" height="120" as="geometry" />
        </mxCell>
        <mxCell id="rwxguHhk1OJxd6nBLaDE-4" value="Text" style="text;html=1;strokeColor=none;fillColor=none;align=center;verticalAlign=middle;whiteSpace=wrap;rounded=0;" vertex="1" parent="1">
          <mxGeometry x="265" y="300" width="60" height="30" as="geometry" />
        </mxCell>
      </root>
    </mxGraphModel>
  </diagram>
</mxfile>
